# xmcd
#
# Track frame offsets: 
#        150
#        7930
#        18782
#        36928
#        60441
#        75043
#        98723
#        118201
#        137734
#        161156
#        187532
#        202013
#        227300
#        251858
#        272296
#        297103
#        319607
#
# Disc length: 4579 seconds
#
# Revision: 0
# Processed by: cddbd v1.5.2PL0 Copyright (c) Steve Scherf et al.
# Submitted via: ExactAudioCopy v0.99pb4
#
DISCID=cb11e111
DTITLE=Fabrizio De Andre' - Storia di un impiegato and FDA
DYEAR=2001
DGENRE=Blues
TTITLE0=Introduzione
TTITLE1=Canzone di maggio
TTITLE2=La bomba in testa
TTITLE3=Al ballo mascherato
TTITLE4=Sogno numero due
TTITLE5=La canzone del padre
TTITLE6=Il bombarolo
TTITLE7=Verranno a chiederti del nostro amore
TTITLE8=Nella mia ora di liberta'
TTITLE9=Quello che non ho
TTITLE10=Canto del servo pastore
TTITLE11=Fiume Sand Creek
TTITLE12=Ave Maria
TTITLE13=Hotel Supramonte
TTITLE14=Franziska
TTITLE15=Se ti tagliassero a pezzetti
TTITLE16=Verdi pascoli
EXTD=
EXTT0=
EXTT1=
EXTT2=
EXTT3=
EXTT4=
EXTT5=
EXTT6=
EXTT7=
EXTT8=
EXTT9=
EXTT10=
EXTT11=
EXTT12=
EXTT13=
EXTT14=
EXTT15=
EXTT16=
PLAYORDER=
